<svg xmlns="http://www.w3.org/2000/svg" width="32" height="32" viewBox="0 0 32 32">
  <circle cx="16" cy="16" r="15" fill="#f6fff8" stroke="#6b9080" stroke-width="1"/>
  <g transform="translate(4, 4) scale(1)">
    <svg xmlns="http://www.w3.org/2000/svg" width="24" height="24" viewBox="0 0 24 24" fill="none" stroke="#6b9080" stroke-width="2" stroke-linecap="round" stroke-linejoin="round">
      <path d="M12 5a3 3 0 1 0-5.997.125 4 4 0 0 0-2.526 5.77 4 4 0 0 0 .52 6.588A3 3 0 1 0 12 18Z"/>
      <path d="M9 13a4.5 4.5 0 0 0 3-4"/>
      <path d="M6.003 5.125A3 3 0 0 0 6.401 6.5"/>
      <path d="M3.477 10.896a4 4 0 0 1 .526-1.396"/>
      <path d="M3.474 14.352a4 4 0 0 1-.519-1.378"/>
      <path d="M6.401 18.5a3 3 0 0 1-1.011-1.388"/>
      <path d="M12 13h1"/>
      <path d="M12 18h6a2 2 0 0 1 2 2v1"/>
      <path d="M12 8h8"/>
      <path d="M16 8V5a2 2 0 0 1 2-2"/>
      <circle cx="16" cy="13" r=".5" fill="#6b9080"/>
      <circle cx="18" cy="13" r=".5" fill="#6b9080"/>
      <circle cx="20" cy="13" r=".5" fill="#6b9080"/>
      <circle cx="21" cy="8" r=".5" fill="#6b9080"/>
      <circle cx="21" cy="18" r=".5" fill="#6b9080"/>
      <circle cx="18" cy="5" r=".5" fill="#6b9080"/>
    </svg>
  </g>
</svg>
